<svg xmlns="http://www.w3.org/2000/svg" width="1200" height="320" viewBox="0 0 1200 320">
  <defs>
    <linearGradient id="bg" x1="0" y1="0" x2="1" y2="1">
      <stop offset="0%" stop-color="#ffe8cc"/>
      <stop offset="100%" stop-color="#fff"/>
    </linearGradient>
  </defs>
  <rect width="1200" height="320" fill="url(#bg)"/>
  <g opacity="0.15" fill="#d97706">
    <circle cx="160" cy="260" r="140"/>
    <circle cx="1040" cy="80" r="120"/>
  </g>
  <g fill="#d97706">
    <path d="M160 110 h160 a20 20 0 0 1 20 20 v60 a20 20 0 0 1 -20 20 h-160 a20 20 0 0 1 -20 -20 v-60 a20 20 0 0 1 20 -20 z" opacity="0.18"/>
    <circle cx="260" cy="160" r="26"/>
    <rect x="730" y="120" width="220" height="20" rx="10"/>
    <rect x="730" y="150" width="260" height="20" rx="10" opacity="0.6"/>
  </g>
</svg>

